<svg width="40" height="40" viewBox="0 0 40 40" fill="none" xmlns="http://www.w3.org/2000/svg">
<path d="M30 0H10C4.48 0 0 4.46 0 9.96V21.92V23.92C0 29.42 4.48 33.88 10 33.88H13C13.54 33.88 14.26 34.24 14.6 34.68L17.6 38.66C18.92 40.42 21.08 40.42 22.4 38.66L25.4 34.68C25.78 34.18 26.38 33.88 27 33.88H30C35.52 33.88 40 29.42 40 23.92V9.96C40 4.46 35.52 0 30 0ZM12 20C10.88 20 10 19.1 10 18C10 16.9 10.9 16 12 16C13.1 16 14 16.9 14 18C14 19.1 13.12 20 12 20ZM20 20C18.88 20 18 19.1 18 18C18 16.9 18.9 16 20 16C21.1 16 22 16.9 22 18C22 19.1 21.12 20 20 20ZM28 20C26.88 20 26 19.1 26 18C26 16.9 26.9 16 28 16C29.1 16 30 16.9 30 18C30 19.1 29.12 20 28 20Z" fill="#555555"/>
</svg>
