<svg width="50" height="40" viewBox="0 0 50 40" fill="none" xmlns="http://www.w3.org/2000/svg">
<path fill-rule="evenodd" clip-rule="evenodd" d="M50 4.73536C48.1605 5.53823 46.1839 6.08093 44.1087 6.32447C46.2261 5.07479 47.8533 3.09576 48.6182 0.738941C46.6365 1.89593 44.4405 2.73715 42.1049 3.18844C40.2341 1.22731 37.568 0 34.6175 0C28.9528 0 24.3594 4.52058 24.3594 10.0984C24.3594 10.8892 24.4503 11.6607 24.6257 12.4003C16.1 11.979 8.54188 7.95832 3.48233 1.84799C2.59925 3.33994 2.09342 5.07543 2.09342 6.92534C2.09342 10.4289 3.90439 13.5189 6.65688 15.3305C4.97578 15.2774 3.39402 14.8229 2.01096 14.0674C2.00966 14.1096 2.00966 14.1511 2.00966 14.1946C2.00966 19.0859 5.54524 23.1673 10.2373 24.0961C9.37691 24.3256 8.4711 24.4496 7.53542 24.4496C6.87376 24.4496 6.23158 24.387 5.60498 24.2687C6.91012 28.2799 10.6983 31.2005 15.1871 31.2823C11.6762 33.99 7.25361 35.6053 2.44731 35.6053C1.61942 35.6053 0.803215 35.558 0 35.4641C4.53943 38.3291 9.93143 40 15.7241 40C34.5922 40 44.9099 24.6133 44.9099 11.2701C44.9099 10.8329 44.8996 10.3963 44.8801 9.96229C46.8858 8.53938 48.6254 6.76042 50 4.73536Z" fill="#555555"/>
</svg>
